<?xml version="1.0" encoding="UTF-8" standalone="no"?>
<svg
   id="图层_1"
   data-name="图层 1"
   viewBox="0 0 230 140"
   version="1.1"
   width="230"
   height="140"
   xmlns="http://www.w3.org/2000/svg"
   xmlns:svg="http://www.w3.org/2000/svg"
   xmlns:rdf="http://www.w3.org/1999/02/22-rdf-syntax-ns#"
   xmlns:cc="http://creativecommons.org/ns#"
   xmlns:dc="http://purl.org/dc/elements/1.1/">
  <defs
     id="defs1">
    <style
       id="style1">.cls-1{fill:#9e1084;}</style>
  </defs>
  <title
     id="title1">luna-flow</title>
  <g
     id="g1"
     transform="translate(0,-10)">
    <path
       class="cls-1"
       d="m 230,20 v 30 a 10,10 0 0 1 -10,10 h -70 a 10,10 0 0 0 -10,10 v 50 a 30,30 0 0 1 -30,30 H 30 A 30,30 0 0 1 0,120 V 20 A 10,10 0 0 1 10,10 h 30 a 10,10 0 0 1 10,10 v 75 a 5,5 0 0 0 5,5 h 30 a 5,5 0 0 0 5,-5 V 40 a 30,30 0 0 1 30,-30 h 100 a 10,10 0 0 1 10,10 z"
       id="path1" />
    <path
       class="cls-1"
       d="m 220,75 v 30 a 5,5 0 0 1 -5,5 H 150 V 75 a 5,5 0 0 1 5,-5 h 60 a 5,5 0 0 1 5,5 z"
       id="path2" />
  </g>
  <metadata
     id="metadata1">
    <rdf:RDF>
      <cc:Work
         rdf:about="">
        <dc:title>luna-flow</dc:title>
      </cc:Work>
    </rdf:RDF>
  </metadata>
</svg>
