<?xml version="1.0" encoding="UTF-8" standalone="no"?>
<svg
   id="图层_1"
   data-name="图层 1"
   viewBox="0 0 230 160"
   version="1.1"
   sodipodi:docname="luna-flow.svg"
   inkscape:version="1.4 (e7c3feb100, 2024-10-09)"
   xmlns:inkscape="http://www.inkscape.org/namespaces/inkscape"
   xmlns:sodipodi="http://sodipodi.sourceforge.net/DTD/sodipodi-0.dtd"
   xmlns="http://www.w3.org/2000/svg"
   xmlns:svg="http://www.w3.org/2000/svg">
  <sodipodi:namedview
     id="namedview2"
     pagecolor="#ffffff"
     bordercolor="#000000"
     borderopacity="0.25"
     inkscape:showpageshadow="2"
     inkscape:pageopacity="0.0"
     inkscape:pagecheckerboard="0"
     inkscape:deskcolor="#d1d1d1"
     inkscape:zoom="4"
     inkscape:cx="121.5"
     inkscape:cy="81.625"
     inkscape:window-width="2752"
     inkscape:window-height="1124"
     inkscape:window-x="0"
     inkscape:window-y="0"
     inkscape:window-maximized="1"
     inkscape:current-layer="图层_1" />
  <defs
     id="defs1">
    <style
       id="style1">.cls-1{fill:#9e1084;}</style>
  </defs>
  <title
     id="title1">luna-flow</title>
  <path
     class="cls-1"
     d="m 230,20 v 30 a 10,10 0 0 1 -10,10 h -70 a 10,10 0 0 0 -10,10 v 50 a 30,30 0 0 1 -30,30 H 30 A 30,30 0 0 1 0,120 V 20 A 10,10 0 0 1 10,10 h 30 a 10,10 0 0 1 10,10 v 75 a 5,5 0 0 0 5,5 h 30 a 5,5 0 0 0 5,-5 V 40 a 30,30 0 0 1 30,-30 h 100 a 10,10 0 0 1 10,10 z"
     id="path1" />
  <path
     class="cls-1"
     d="m 220,75 v 30 a 5,5 0 0 1 -5,5 H 150 V 75 a 5,5 0 0 1 5,-5 h 60 a 5,5 0 0 1 5,5 z"
     id="path2" />
</svg>
